<svg width="38" height="39" viewBox="0 0 38 39" fill="none" xmlns="http://www.w3.org/2000/svg">
<path d="M0 38.4725H7.15643V16.4114C7.15643 13.2905 6.83359 8.44781 6.83359 8.44781H6.94122C6.94122 8.44781 7.80214 12.9677 8.60925 15.7657L15.0662 38.4725H22.5455L29.1638 15.7657C29.9709 12.9677 30.8318 8.44781 30.8318 8.44781H30.9395C30.9395 8.44781 30.6166 13.2905 30.6166 16.4114V38.4725H37.8807V0H26.7425L21.3079 19.317C19.9627 24.1597 18.9403 29.7019 18.9403 29.7019H18.8327C18.8327 29.7019 17.7566 24.1597 16.4114 19.317L10.9768 0H0V38.4725Z" fill="#FAA8C0"/>
</svg>
