<svg width="31" height="39" viewBox="0 0 31 39" fill="none" xmlns="http://www.w3.org/2000/svg">
<path d="M0 38.4725H7.80212V23.0297H14.0976C18.9403 23.0297 21.3079 25.3973 21.6307 29.5943C21.9536 33.7375 22.0612 38.0421 23.0297 38.4725H30.509V38.0959C29.1638 37.504 29.379 33.3608 28.8409 27.9262C28.3567 23.2449 26.5272 21.2003 22.9759 20.1779V20.0165C27.9262 18.6713 30.0247 15.2276 30.0247 10.7077C30.0247 4.30462 25.0744 0 17.649 0H0V38.4725ZM7.80212 6.29551H16.3037C20.4469 6.29551 22.4378 8.60924 22.4378 11.7301C22.4378 14.7971 20.3393 17.0033 16.0885 17.0033H7.80212V6.29551Z" fill="#FAA8C0"/>
</svg>
