<svg width="33" height="41" viewBox="0 0 33 41" fill="none" xmlns="http://www.w3.org/2000/svg">
<path d="M17.2047 40.8611C25.8678 40.8611 32.1633 36.5027 32.1633 28.7005C32.1633 20.4141 25.7063 18.5309 17.7966 16.809C12.093 15.5715 9.4026 14.6567 9.4026 11.5359C9.4026 8.79167 12.1468 7.01602 16.3438 7.01602C20.3256 7.01602 23.3388 8.9531 23.7693 12.8273H31.2486C30.6567 5.07894 25.0607 0.828125 16.3976 0.828125C7.84217 0.828125 1.65428 4.75609 1.65428 12.343C1.65428 20.3603 7.94979 22.1898 14.8372 23.7502C20.7022 25.0954 24.3612 25.8487 24.3612 29.6153C24.3612 33.1666 20.8636 34.5656 16.8819 34.5656C11.3935 34.5656 8.7569 32.7361 8.21883 28.1087H0.578125C0.847164 36.2336 6.76602 40.8611 17.2047 40.8611Z" fill="#FAA8C0"/>
</svg>
